<svg width="70" height="89.99999999999999" xmlns="http://www.w3.org/2000/svg" fill="none">
 <g>
  <title>Layer 1</title>
  <g id="svg_2" stroke="null" transform="matrix(5.67176 0 0 5.67176 -203.539 -387.444)">
   <svg viewBox="0 0 575 575" class="roots-wrapper" id="svg_1" stroke="null" x="17.40706" y="30.98323">
    <g id="svg_31" stroke="null">
     <svg viewBoxSize="575" data-root-id="7750653899093" version="1.1" id="svg_43" x="156.8355" y="229.993" viewBox="137 218.88999938964844 320.2699890136719 404.3900146484375" xml:space="preserve" height=" 114.988px" width=" 91.0764px" preserveAspectRatio="xMinYMin" zoom="1" editorType="buyer" data-layer-role="icon" stroke="null" xmlns="http://www.w3.org/2000/svg" xmlns:xlink="http://www.w3.org/1999/xlink">
      <path d="m228.95,322.15c19.48,-18.73 45.07,-28.39 72.15,-27.4c51.92,2.06 94.27,45.98 94.43,97.98c0.08,23.03 -8.01,45.48 -22.78,63.15c-21.29,25.59 -33.02,57.87 -33.02,90.97c0,0 2.23,15.19 -8.58,15.19l-68.02,0c-11.06,0 -8.58,-15.19 -8.58,-15.19c0,-32.36 -11.89,-64.38 -34.42,-92.62c-13.95,-17.58 -21.38,-38.71 -21.38,-61.16c-0.01,-27 10.72,-52.26 30.2,-70.92l0,0zm4.63,121.35c24.52,30.71 37.64,65.71 38.14,101.37l50.85,0c0.5,-36.4 13.54,-71.82 36.98,-99.97c12.13,-14.61 18.82,-33.1 18.74,-52.09c-0.16,-42.92 -35.08,-79.16 -77.92,-80.89c-22.37,-0.83 -43.5,7.18 -59.52,22.62c-16.09,15.44 -24.93,36.24 -24.93,58.53c0.07,18.57 6.1,35.98 17.66,50.43l0,0z" name="Layer 1" zoom="1" data-layer-id="1931347999093" fill=" rgb(238, 66, 90)" id="svg_53" stroke="null"/>
      <path class="st0" d="m183.88,265.78c3.39,-3.39 8.84,-3.39 12.14,0l20.97,20.97c3.38,3.38 3.38,8.83 0,12.13c-3.39,3.3 -8.83,3.39 -12.14,0l-20.97,-20.97c-3.38,-3.3 -3.38,-8.75 0,-12.13l0,0z" name="Layer 2" zoom="1" data-layer-id="7006045899093" fill=" rgb(255, 212, 26)" id="svg_52" stroke="null"/>
      <path d="m262.8,573.76l68.68,0c4.79,0 8.58,3.88 8.58,8.58c0,4.79 -3.88,8.59 -8.58,8.59l-68.68,0c-4.79,0 -8.59,-3.88 -8.59,-8.59c0,-4.7 3.88,-8.58 8.59,-8.58l0,0z" name="Layer 3" zoom="1" data-layer-id="5923521699093" fill=" rgb(238, 66, 90)" id="svg_51" stroke="null"/>
      <path d="m275.76,606.11l42.68,0c4.78,0 8.59,3.88 8.59,8.59c0,4.78 -3.88,8.58 -8.59,8.58l-42.68,0c-4.78,0 -8.58,-3.88 -8.58,-8.58c0,-4.71 3.87,-8.59 8.58,-8.59l0,0z" name="Layer 4" zoom="1" data-layer-id="879052399093" fill=" rgb(238, 66, 90)" id="svg_50" stroke="null"/>
      <path class="st0" d="m297.14,265.69c-4.79,0 -8.59,-3.88 -8.59,-8.59l0,-29.63c0,-4.79 3.88,-8.58 8.59,-8.58c4.7,0 8.58,3.88 8.58,8.58l0,29.63c0,4.8 -3.79,8.59 -8.58,8.59l0,0z" name="Layer 5" zoom="1" data-layer-id="4092744999093" fill=" rgb(255, 212, 26)" id="svg_49" stroke="null"/>
      <path class="st0" d="m377.29,298.96c-3.39,-3.39 -3.39,-8.84 0,-12.14l20.97,-20.97c3.38,-3.39 8.83,-3.39 12.13,0c3.31,3.39 3.39,8.83 0,12.14l-20.97,20.97c-3.38,3.3 -8.83,3.3 -12.13,0l0,0z" name="Layer 6" zoom="1" data-layer-id="2746288999093" fill=" rgb(255, 212, 26)" id="svg_48" stroke="null"/>
      <path class="st0" d="m145.58,370.44l29.63,0c4.79,0 8.58,3.88 8.58,8.58c0,4.71 -3.88,8.59 -8.58,8.59l-29.63,0c-4.79,0 -8.58,-3.88 -8.58,-8.59c0,-4.69 3.88,-8.58 8.58,-8.58l0,0z" name="Layer 7" zoom="1" data-layer-id="1495801399093" fill=" rgb(255, 212, 26)" id="svg_47" stroke="null"/>
      <path class="st0" d="m419.06,370.44l29.63,0c4.79,0 8.58,3.88 8.58,8.58c0,4.71 -3.88,8.59 -8.58,8.59l-29.63,0c-4.79,0 -8.58,-3.88 -8.58,-8.59c-0.01,-4.69 3.79,-8.58 8.58,-8.58l0,0z" name="Layer 8" zoom="1" data-layer-id="2340031699093" fill=" rgb(255, 212, 26)" id="svg_46" stroke="null"/>
      <path class="st1" d="m316.33,336.09c-10.77,0 -14.95,11.4 -9.33,25.47c5.62,14.07 18.91,25.47 29.68,25.47c10.77,0 14.95,-11.4 9.33,-25.47c-5.62,-14.07 -18.91,-25.47 -29.68,-25.47l0,0z" name="Layer 9" zoom="1" data-layer-id="4071879399093" fill-rule=" evenodd" clip-rule=" evenodd" fill=" rgb(255, 212, 26)" id="svg_45" stroke="null"/>
      <path class="st1" d="m303.09,544.87c0,0 12.47,-69.13 -0.27,-114.24c-12.74,-45.11 -54.93,-62.35 -54.93,-62.35s41.92,-2.65 66.6,19.9c24.68,22.55 38.21,6.37 40.33,-2.92c2.12,-9.29 10.73,-40.45 -49.96,-73.03c40.75,3.99 73.25,39.18 73.41,80.58c0.08,18.99 -6.6,37.48 -18.74,52.09c-23.44,28.15 -36.48,63.56 -36.98,99.97l-19.46,0l0,0z" name="Layer 10" zoom="1" data-layer-id="4990663399093" fill-rule=" evenodd" clip-rule=" evenodd" fill=" rgb(255, 212, 26)" id="svg_44" stroke="null"/>
     </svg>
    </g>
    <g id="svg_27" stroke="null"/>
    <g id="svg_7" stroke="null">
     <svg viewBoxSize="575" data-root-id="1209074599093" x="283.57608" y="277.87671" viewBox="1.2799999713897705 4.940000057220459 137.47999572753906 35.17000198364258" height=" 35.17px" width=" 137.48px" fontUrl="http://fonts.gstatic.com/s/hammersmithone/v12/qWcyB624q4L_C4jGQ9IK0O_dFlnbshsks4MRXw.ttf" zoom="1" editorType="buyer" data-layer-role="brandName" id="svg_57" stroke="null" xmlns="http://www.w3.org/2000/svg">
      <g data-horizontal-grow="left" data-vertical-center="false" zoom="1" root="[object Object]" fill=" rgb(78, 182, 72)" id="svg_58" stroke="null">
       <path fill="none" d="m22.58483,17.93517l0.05,0.04q-0.33,0.59 -0.33,2.86l0,0l0,5.45q0,2.48 -2.57,4.31l0,0q-2.66,1.91 -6.51,1.91l0,0q-5.34,0 -8.52,-3.35l0,0q-3.08,-3.2 -3.08,-8.16l0,0q0,-5.27 3.13,-8.79l0,0q3.5,-3.95 9.63,-3.95l0,0q4.1,0 6.49,1.58l0,0l-0.28,5.18l-0.14,0.04q-0.62,-1.07 -2.43,-1.76l0,0q-1.72,-0.65 -3.61,-0.65q-1.89,0 -3.3,0.6q-1.42,0.6 -2.4,1.7l0,0q-2.08,2.27 -2.08,6l0,0q0,3.25 1.83,5.22l0,0q1.83,1.95 4.71,1.95l0,0q3.18,0 4.29,-1.65l0,0q0.35,-0.53 0.35,-1.2l0,0l0,-2.92l-2.26,0q-1.83,0 -1.99,0.32l0,0l-0.05,-0.02l-0.16,-4.59q0.49,0.14 3.99,0.14l0,0l2.07,0q1.94,0 3.17,-0.26l0,0zm8.47,1.34l0,10.83q0,1.51 0.07,1.96l0,0l-4.38,0l0,-18.37l4.31,0l0,1.36q1.49,-1.71 3.14,-1.71q1.64,0 2.59,0.41l0,0l-0.32,4.73l-0.07,0.05q-0.61,-1.09 -2.55,-1.09l0,0q-0.73,0 -1.5,0.5q-0.76,0.5 -1.29,1.33l0,0zm7,3.76l0,0q0,-2.06 0.7,-3.82q0.7,-1.75 1.98,-3.07l0,0q2.75,-2.8 7.18,-2.8l0,0q3.74,0 6.01,2.48l0,0q2.23,2.39 2.23,6.01l0,0q0,1.39 -0.21,1.9l0,0q-1.76,0.49 -7.15,0.49l0,0l-6.19,0q0.45,1.89 2.12,2.93q1.67,1.05 4.35,1.05l0,0q2.79,0 4.8,-1.01l0,0q0.52,-0.26 0.79,-0.49l0,0q-0.04,0.74 -0.09,1.51l0,0l-0.19,2.75q-1.34,0.91 -4.33,1.26l0,0q-0.88,0.11 -1.69,0.11l0,0q-4.46,0 -7.38,-2.6l0,0q-2.93,-2.62 -2.93,-6.7zm13.42,-2.22l0,0q-0.72,-3.78 -4.11,-3.78l0,0q-2.67,0 -4.06,2.31l0,0q-0.42,0.7 -0.65,1.54l0,0q0.42,0.02 1.04,0.04l0,0l1.3,0q0.65,0.02 1.25,0.02l0,0l1,0q0.89,0 1.76,-0.02l0,0l1.44,-0.05q0.58,-0.02 1.03,-0.06zm7.62,2.22l0,0q0,-2.06 0.7,-3.82q0.7,-1.75 1.99,-3.07l0,0q2.74,-2.8 7.17,-2.8l0,0q3.74,0 6.01,2.48l0,0q2.23,2.39 2.23,6.01l0,0q0,1.39 -0.21,1.9l0,0q-1.76,0.49 -7.15,0.49l0,0l-6.19,0q0.46,1.89 2.13,2.93q1.67,1.05 4.34,1.05l0,0q2.79,0 4.8,-1.01l0,0q0.52,-0.26 0.79,-0.49l0,0q-0.04,0.74 -0.09,1.51l0,0l-0.19,2.75q-1.34,0.91 -4.33,1.26l0,0q-0.88,0.11 -1.69,0.11l0,0q-4.46,0 -7.38,-2.6l0,0q-2.93,-2.62 -2.93,-6.7zm13.43,-2.22l0,0q-0.72,-3.78 -4.12,-3.78l0,0q-2.67,0 -4.06,2.31l0,0q-0.42,0.7 -0.65,1.54l0,0q0.42,0.02 1.04,0.04l0,0l1.3,0q0.65,0.02 1.25,0.02l0,0l1,0q0.9,0 1.76,-0.02l0,0l1.44,-0.05q0.58,-0.02 1.04,-0.06zm13.11,-1.03l0,10.03q0,1.55 0.14,2.25l0,0l-4.41,0l0,-18.37l4.27,0l0,1.57q2.32,-1.92 4.96,-1.92l0,0q2.88,0 4.6,1.96q1.72,1.96 1.72,5.16l0,0l0,7q0,2.97 0.09,3.57q0.09,0.59 0.24,0.77q0.15,0.18 0.25,0.32l0,0l-0.03,0.07q-1.42,-0.13 -2.08,-0.13l0,0l-1.23,0q-0.56,0 -1.51,0.06l0,0l0,-9.58q0,-5.15 -3.13,-5.15l0,0q-2.32,0 -3.88,2.39l0,0zm19.81,-8.48l-3.96,-2.84q1.41,-2.2 2.94,-3.87l0,0l3.78,2.97q-0.76,0.93 -1.41,1.83l0,0q0,0 -1.35,1.91l0,0zm0.67,2.39l0,16.41q0,1.51 0.07,1.96l0,0l-4.47,0l0,-18.37l4.4,0zm9.35,2.03l4.38,0q-0.14,0.51 -0.14,2.56l0,0l0,1.55l-4.24,0l0,12.23l-4.31,0l0,-12.23l-2.58,0q0.02,-1.16 0.03,-2.06l0,0l0.04,-1.88l0,-0.17l2.51,0l0,-1.09q0,-4.22 1.97,-6.79l0,0q2.06,-2.65 5.66,-2.65l0,0q1.53,0 2.02,0.21l0,0l0.02,4.41l-0.03,0.09q-0.67,-0.67 -1.7,-0.67q-1.03,0 -1.66,0.34q-0.63,0.35 -1.07,0.98l0,0q-0.9,1.26 -0.9,3.46l0,0l0,1.71zm10.48,24.04l-4.54,-1.58l1.16,-0.93q2.62,-2.13 4.34,-6.28l0,0l0.81,-1.95l-6.73,-15.33l4.92,0l4.22,10.62l3.92,-10.62l5.06,0q-0.91,1.27 -2.23,4.72l0,0l-2.64,6.52q-5.29,12.44 -8.29,14.83l0,0z" id="svg_59"/>
      </g>
     </svg>
    </g>
   </svg>
  </g>
 </g>

</svg>