<svg width="240" height="99.99999999999999" xmlns="http://www.w3.org/2000/svg" fill="none">

 <g>
  <title>Layer 1</title>
  <g transform="matrix(4.66997 0 0 4.66997 -166.317 -317.803)" stroke="null" id="svg_2">
   <svg y="28.933" x="-59.38056" stroke="null" id="svg_7" class="roots-wrapper" viewBox="0 0 575 575">
    <g stroke="null" id="svg_4">
     <svg stroke="null" data-layer-role="icon" editorType="buyer" zoom="1" preserveAspectRatio="xMinYMin" width=" 91.0764px" height=" 114.988px" xml:space="preserve" viewBox="137 218.88999938964844 320.2699890136719 404.3900146484375" y="229.993" x="156.8355" id="svg_3" version="1.1" data-root-id="7750653899093" viewBoxSize="575" xmlns:xlink="http://www.w3.org/1999/xlink" xmlns="http://www.w3.org/2000/svg">
      <path stroke="null" id="svg_8" fill=" rgb(238, 66, 90)" data-layer-id="1931347999093" zoom="1" name="Layer 1" d="m228.95,322.15c19.48,-18.73 45.07,-28.39 72.15,-27.4c51.92,2.06 94.27,45.98 94.43,97.98c0.08,23.03 -8.01,45.48 -22.78,63.15c-21.29,25.59 -33.02,57.87 -33.02,90.97c0,0 2.23,15.19 -8.58,15.19l-68.02,0c-11.06,0 -8.58,-15.19 -8.58,-15.19c0,-32.36 -11.89,-64.38 -34.42,-92.62c-13.95,-17.58 -21.38,-38.71 -21.38,-61.16c-0.01,-27 10.72,-52.26 30.2,-70.92l0,0zm4.63,121.35c24.52,30.71 37.64,65.71 38.14,101.37l50.85,0c0.5,-36.4 13.54,-71.82 36.98,-99.97c12.13,-14.61 18.82,-33.1 18.74,-52.09c-0.16,-42.92 -35.08,-79.16 -77.92,-80.89c-22.37,-0.83 -43.5,7.18 -59.52,22.62c-16.09,15.44 -24.93,36.24 -24.93,58.53c0.07,18.57 6.1,35.98 17.66,50.43l0,0z"/>
      <path stroke="null" id="svg_9" fill=" rgb(255, 212, 26)" data-layer-id="7006045899093" zoom="1" name="Layer 2" d="m183.88,265.78c3.39,-3.39 8.84,-3.39 12.14,0l20.97,20.97c3.38,3.38 3.38,8.83 0,12.13c-3.39,3.3 -8.83,3.39 -12.14,0l-20.97,-20.97c-3.38,-3.3 -3.38,-8.75 0,-12.13l0,0z" class="st0"/>
      <path stroke="null" id="svg_10" fill=" rgb(238, 66, 90)" data-layer-id="5923521699093" zoom="1" name="Layer 3" d="m262.8,573.76l68.68,0c4.79,0 8.58,3.88 8.58,8.58c0,4.79 -3.88,8.59 -8.58,8.59l-68.68,0c-4.79,0 -8.59,-3.88 -8.59,-8.59c0,-4.7 3.88,-8.58 8.59,-8.58l0,0z"/>
      <path stroke="null" id="svg_11" fill=" rgb(238, 66, 90)" data-layer-id="879052399093" zoom="1" name="Layer 4" d="m275.76,606.11l42.68,0c4.78,0 8.59,3.88 8.59,8.59c0,4.78 -3.88,8.58 -8.59,8.58l-42.68,0c-4.78,0 -8.58,-3.88 -8.58,-8.58c0,-4.71 3.87,-8.59 8.58,-8.59l0,0z"/>
      <path stroke="null" id="svg_12" fill=" rgb(255, 212, 26)" data-layer-id="4092744999093" zoom="1" name="Layer 5" d="m297.14,265.69c-4.79,0 -8.59,-3.88 -8.59,-8.59l0,-29.63c0,-4.79 3.88,-8.58 8.59,-8.58c4.7,0 8.58,3.88 8.58,8.58l0,29.63c0,4.8 -3.79,8.59 -8.58,8.59l0,0z" class="st0"/>
      <path stroke="null" id="svg_13" fill=" rgb(255, 212, 26)" data-layer-id="2746288999093" zoom="1" name="Layer 6" d="m377.29,298.96c-3.39,-3.39 -3.39,-8.84 0,-12.14l20.97,-20.97c3.38,-3.39 8.83,-3.39 12.13,0c3.31,3.39 3.39,8.83 0,12.14l-20.97,20.97c-3.38,3.3 -8.83,3.3 -12.13,0l0,0z" class="st0"/>
      <path stroke="null" id="svg_14" fill=" rgb(255, 212, 26)" data-layer-id="1495801399093" zoom="1" name="Layer 7" d="m145.58,370.44l29.63,0c4.79,0 8.58,3.88 8.58,8.58c0,4.71 -3.88,8.59 -8.58,8.59l-29.63,0c-4.79,0 -8.58,-3.88 -8.58,-8.59c0,-4.69 3.88,-8.58 8.58,-8.58l0,0z" class="st0"/>
      <path stroke="null" id="svg_15" fill=" rgb(255, 212, 26)" data-layer-id="2340031699093" zoom="1" name="Layer 8" d="m419.06,370.44l29.63,0c4.79,0 8.58,3.88 8.58,8.58c0,4.71 -3.88,8.59 -8.58,8.59l-29.63,0c-4.79,0 -8.58,-3.88 -8.58,-8.59c-0.01,-4.69 3.79,-8.58 8.58,-8.58l0,0z" class="st0"/>
      <path stroke="null" id="svg_16" fill=" rgb(255, 212, 26)" clip-rule=" evenodd" fill-rule=" evenodd" data-layer-id="4071879399093" zoom="1" name="Layer 9" d="m316.33,336.09c-10.77,0 -14.95,11.4 -9.33,25.47c5.62,14.07 18.91,25.47 29.68,25.47c10.77,0 14.95,-11.4 9.33,-25.47c-5.62,-14.07 -18.91,-25.47 -29.68,-25.47l0,0z" class="st1"/>
      <path stroke="null" id="svg_17" fill=" rgb(255, 212, 26)" clip-rule=" evenodd" fill-rule=" evenodd" data-layer-id="4990663399093" zoom="1" name="Layer 10" d="m303.09,544.87c0,0 12.47,-69.13 -0.27,-114.24c-12.74,-45.11 -54.93,-62.35 -54.93,-62.35s41.92,-2.65 66.6,19.9c24.68,22.55 38.21,6.37 40.33,-2.92c2.12,-9.29 10.73,-40.45 -49.96,-73.03c40.75,3.99 73.25,39.18 73.41,80.58c0.08,18.99 -6.6,37.48 -18.74,52.09c-23.44,28.15 -36.48,63.56 -36.98,99.97l-19.46,0l0,0z" class="st1"/>
     </svg>
    </g>
    <g stroke="null" id="svg_5">
     <svg stroke="null" id="svg_18" data-layer-role="slogan" editorType="buyer" zoom="1" fontUrl="http://fonts.gstatic.com/s/arvo/v14/tDbM2oWUg0MKoZw1yLTA8vL7lAE.ttf" width=" 181.83px" height=" 17.82px" viewBox="0.9900000095367432 3.619999885559082 181.8300018310547 17.81999969482422" y="327.187" x="236.3345" data-root-id="5334815999093" viewBoxSize="575" xmlns="http://www.w3.org/2000/svg">
      <g stroke="null" id="svg_19" fill=" rgb(84, 84, 84)" root="[object Object]" zoom="1" data-vertical-center="false" data-horizontal-grow="left">
       <path stroke="null" id="svg_20" d="m0.99,17.3l0,-2.41l1.24,0l0,-8.5l-1.24,0l0,-2.42l5.49,0l3.93,9.62l3.64,-9.62l5.57,0l0,2.42l-1.24,0l0,8.5l1.22,0l0,2.41l-4.98,0l0,-2.41l0.91,0l0,-7.67l-3.99,9.92l-2.47,0l-4.06,-9.65l0,7.4l0.99,0l0,2.41l-5.01,0zm20.25,-4.59l0,0q0,-0.99 0.36,-1.86q0.36,-0.87 1.01,-1.52q0.64,-0.66 1.52,-1.03q0.89,-0.38 1.96,-0.38l0,0q1.06,0 1.95,0.38q0.89,0.37 1.54,1.03q0.64,0.65 0.99,1.52q0.36,0.87 0.36,1.86l0,0q0,0.99 -0.35,1.87q-0.35,0.87 -0.98,1.53q-0.64,0.65 -1.53,1.03q-0.89,0.38 -1.98,0.38l0,0q-1.1,0 -1.99,-0.38q-0.9,-0.38 -1.53,-1.03q-0.63,-0.65 -0.98,-1.52q-0.35,-0.88 -0.35,-1.88zm2.63,0l0,0q0,0.52 0.18,0.95q0.17,0.44 0.48,0.75q0.3,0.32 0.7,0.5q0.4,0.17 0.86,0.17l0,0q0.46,0 0.86,-0.17q0.4,-0.17 0.7,-0.49q0.29,-0.31 0.46,-0.75q0.16,-0.43 0.16,-0.96l0,0q0,-0.55 -0.16,-0.99q-0.17,-0.43 -0.46,-0.74q-0.3,-0.31 -0.7,-0.47q-0.4,-0.17 -0.86,-0.16l0,0q-0.46,-0.01 -0.86,0.16q-0.4,0.16 -0.7,0.47q-0.31,0.31 -0.48,0.74q-0.18,0.44 -0.18,0.99zm15.87,4.59l0,-5.24q0,-0.77 -0.4,-1.2q-0.4,-0.44 -1.07,-0.44l0,0q-0.46,0 -0.93,0.21q-0.46,0.2 -0.9,0.75l0,0l0,3.51l1.48,0l0,2.41l-5.66,0l0,-2.41l1.33,0l0,-4.29l-1.32,0l0,-2.41l4.15,0l0,0.8q0.57,-0.45 1.28,-0.71q0.71,-0.26 1.49,-0.26l0,0q1.64,0 2.53,0.92q0.89,0.92 0.89,2.69l0,0l0,3.26l1.29,0l0,2.41l-4.16,0zm10.74,-11.27l0,-2.41l3.98,0l0,11.27l1.77,0l0,2.41l-4.48,0l0,-0.35q-0.47,0.24 -0.97,0.38q-0.5,0.14 -1.01,0.14l0,0q-1.04,0 -1.92,-0.37q-0.87,-0.37 -1.5,-1.02q-0.63,-0.66 -0.98,-1.53q-0.35,-0.87 -0.35,-1.88l0,0q0,-1 0.34,-1.86q0.35,-0.87 0.97,-1.51q0.62,-0.64 1.49,-1.01q0.86,-0.37 1.9,-0.37l0,0q0.57,0 1.07,0.11q0.5,0.11 0.96,0.31l0,0l0,-2.31l-1.27,0zm-0.56,9.02l0,0q0.58,-0.02 1.05,-0.3q0.47,-0.28 0.78,-0.74l0,0l0,-2.68q-0.31,-0.47 -0.8,-0.73q-0.48,-0.26 -1.03,-0.25l0,0q-0.46,-0.01 -0.86,0.16q-0.39,0.17 -0.7,0.48q-0.3,0.3 -0.48,0.73q-0.17,0.44 -0.17,0.98l0,0q0,0.54 0.17,0.97q0.18,0.44 0.48,0.74q0.31,0.3 0.7,0.46q0.4,0.16 0.86,0.18zm13.07,2.25l0,-0.5q-0.31,0.2 -0.56,0.33q-0.26,0.14 -0.51,0.22q-0.26,0.09 -0.53,0.13q-0.27,0.04 -0.6,0.04l0,0q-0.81,0 -1.46,-0.23q-0.65,-0.22 -1.09,-0.61q-0.44,-0.39 -0.68,-0.93q-0.24,-0.53 -0.24,-1.15l0,0q0,-0.63 0.24,-1.17q0.25,-0.54 0.7,-0.92q0.46,-0.38 1.12,-0.6q0.67,-0.21 1.52,-0.21l0,0q0.62,0 1.14,0.06q0.51,0.07 0.95,0.17l0,0l0,-0.28q0,-0.35 -0.13,-0.6q-0.13,-0.25 -0.37,-0.41q-0.24,-0.16 -0.57,-0.24q-0.34,-0.07 -0.73,-0.07l0,0q-0.83,0 -1.46,0.16q-0.62,0.16 -1.2,0.47l0,0l-0.85,-1.71q0.9,-0.61 1.88,-0.94q0.98,-0.32 2.08,-0.32l0,0q0.85,0 1.58,0.19q0.72,0.19 1.24,0.61q0.52,0.43 0.81,1.12q0.3,0.68 0.3,1.67l0,0l0,3.31l1.22,0l0,2.41l-3.8,0zm-2,-1.86l0,0q0.62,0 1.13,-0.2q0.51,-0.2 0.87,-0.49l0,0l0,-1.16l-2.11,0q-0.2,0 -0.39,0.06q-0.2,0.06 -0.35,0.18q-0.15,0.11 -0.25,0.28q-0.09,0.16 -0.09,0.38l0,0q0,0.41 0.3,0.68q0.29,0.27 0.89,0.27zm7.4,-4.84l0,-2.41l4.46,0l0,2.41l-0.7,0l1.31,3.41l1.34,-3.41l-0.78,0l0,-2.41l4.47,0l0,2.41l-1,0l-3.52,8.43l1.56,0l0,2.41l-5.65,0l0,-2.41l1.59,0l0.69,-1.73l-2.85,-6.7l-0.92,0zm21.52,6.27l0,-0.05q-0.49,0.28 -0.98,0.41q-0.49,0.12 -1,0.12l0,0q-1.06,0 -1.95,-0.36q-0.88,-0.36 -1.53,-1q-0.65,-0.64 -1.01,-1.51q-0.36,-0.87 -0.36,-1.89l0,0q0,-0.95 0.35,-1.8q0.35,-0.85 0.97,-1.49q0.63,-0.63 1.5,-1q0.87,-0.37 1.89,-0.38l0,0q0.62,0.01 1.14,0.13q0.53,0.12 0.98,0.33l0,0l0,-0.19l2.67,0l0,8.73q0,1.15 -0.4,1.99q-0.4,0.84 -1.06,1.39q-0.66,0.55 -1.54,0.82q-0.88,0.26 -1.85,0.26l0,0q-1.19,0 -2.21,-0.32q-1.01,-0.33 -1.8,-0.88l0,0l1.09,-1.95q0.61,0.39 1.32,0.61q0.71,0.22 1.58,0.22l0,0q0.48,0 0.88,-0.1q0.4,-0.11 0.69,-0.36q0.3,-0.25 0.47,-0.67q0.16,-0.42 0.16,-1.06l0,0zm-1.9,-1.95l0,0q0.62,0 1.12,-0.32q0.49,-0.31 0.78,-0.82l0,0l0.02,-2.21q-0.3,-0.56 -0.82,-0.88q-0.52,-0.33 -1.12,-0.34l0,0q-0.43,0.01 -0.85,0.17q-0.41,0.17 -0.71,0.47q-0.31,0.3 -0.48,0.7q-0.18,0.41 -0.18,0.91l0,0q0,0.53 0.18,0.96q0.17,0.43 0.47,0.73q0.3,0.3 0.71,0.46q0.41,0.17 0.88,0.17zm6.45,-2.21l0,0q0,-0.99 0.37,-1.86q0.36,-0.87 1,-1.52q0.64,-0.66 1.53,-1.03q0.88,-0.38 1.95,-0.38l0,0q1.06,0 1.95,0.38q0.9,0.37 1.54,1.03q0.64,0.65 0.99,1.52q0.36,0.87 0.36,1.86l0,0q0,0.99 -0.35,1.87q-0.34,0.87 -0.98,1.53q-0.64,0.65 -1.53,1.03q-0.89,0.38 -1.98,0.38l0,0q-1.1,0 -1.99,-0.38q-0.9,-0.38 -1.53,-1.03q-0.63,-0.65 -0.98,-1.52q-0.35,-0.88 -0.35,-1.88zm2.63,0l0,0q0,0.52 0.18,0.95q0.17,0.44 0.48,0.75q0.3,0.32 0.7,0.5q0.4,0.17 0.86,0.17l0,0q0.46,0 0.86,-0.17q0.4,-0.17 0.7,-0.49q0.29,-0.31 0.46,-0.75q0.17,-0.43 0.17,-0.96l0,0q0,-0.55 -0.17,-0.99q-0.17,-0.43 -0.46,-0.74q-0.3,-0.31 -0.7,-0.47q-0.4,-0.17 -0.86,-0.16l0,0q-0.46,-0.01 -0.86,0.16q-0.4,0.16 -0.7,0.47q-0.31,0.31 -0.48,0.74q-0.18,0.44 -0.18,0.99zm17.46,0.61l-6.71,0l0.03,0.27q0.09,0.39 0.33,0.69q0.23,0.3 0.55,0.5q0.31,0.21 0.7,0.31q0.39,0.1 0.78,0.1l0,0q0.4,0 0.75,-0.05q0.36,-0.05 0.69,-0.13q0.34,-0.09 0.65,-0.2q0.32,-0.11 0.65,-0.23l0,0l0.96,1.8q-0.5,0.31 -0.92,0.53q-0.41,0.21 -0.84,0.35q-0.42,0.14 -0.89,0.21q-0.48,0.06 -1.11,0.06l0,0q-1.19,0 -2.11,-0.39q-0.92,-0.39 -1.55,-1.06q-0.63,-0.66 -0.96,-1.56q-0.33,-0.9 -0.33,-1.9l0,0q0,-1 0.35,-1.88q0.35,-0.88 0.98,-1.53q0.63,-0.66 1.51,-1.04q0.88,-0.37 1.95,-0.37l0,0q1.07,0 1.91,0.35q0.83,0.36 1.4,0.99q0.57,0.62 0.88,1.47q0.3,0.85 0.33,1.83l0,0q0.03,0.22 0.03,0.43q0.01,0.22 -0.01,0.45l0,0zm-4.61,-3.33l0,0q-0.49,0 -0.84,0.12q-0.34,0.12 -0.58,0.33q-0.24,0.2 -0.38,0.47q-0.14,0.26 -0.22,0.55l0,0l3.81,0q-0.06,-0.3 -0.18,-0.56q-0.11,-0.27 -0.32,-0.47q-0.2,-0.2 -0.51,-0.32q-0.31,-0.12 -0.78,-0.12zm11.77,0.99q0,-0.21 -0.14,-0.41q-0.13,-0.19 -0.4,-0.34q-0.26,-0.14 -0.64,-0.23q-0.38,-0.09 -0.87,-0.09l0,0q-0.18,0 -0.39,0.03q-0.21,0.04 -0.39,0.11q-0.18,0.08 -0.3,0.22q-0.12,0.14 -0.12,0.35l0,0q0,0.1 0.03,0.2q0.03,0.1 0.12,0.18q0.09,0.09 0.24,0.17q0.15,0.07 0.4,0.12l0,0l1.65,0.32q0.9,0.18 1.51,0.44q0.6,0.26 0.97,0.62q0.37,0.35 0.53,0.78q0.17,0.43 0.17,0.93l0,0q0,0.78 -0.37,1.37q-0.36,0.59 -0.96,0.98q-0.59,0.39 -1.33,0.59q-0.75,0.2 -1.5,0.2l0,0q-0.49,0 -0.89,-0.06q-0.4,-0.07 -0.72,-0.17q-0.33,-0.11 -0.58,-0.25q-0.25,-0.15 -0.46,-0.32l0,0l-1.59,0l0,-2.45l2.49,0l0,0.06q0.01,0.25 0.16,0.44q0.15,0.19 0.39,0.32q0.24,0.13 0.55,0.2q0.31,0.06 0.65,0.06l0,0q0.79,0 1.15,-0.2q0.36,-0.21 0.36,-0.53l0,0q0,-0.26 -0.18,-0.44q-0.17,-0.18 -0.62,-0.28l0,0l-1.69,-0.36q-1.59,-0.31 -2.4,-1.03q-0.81,-0.72 -0.81,-1.84l0,0q0,-0.66 0.31,-1.2q0.31,-0.54 0.84,-0.92q0.52,-0.38 1.23,-0.6q0.71,-0.21 1.52,-0.21l0,0q0.55,0 0.98,0.07q0.43,0.07 0.78,0.17q0.34,0.11 0.6,0.25q0.26,0.15 0.46,0.3l0,0l1.53,0l0,2.45l-2.27,0zm14.24,5.89l0,-0.05q-0.49,0.28 -0.99,0.41q-0.49,0.12 -1,0.12l0,0q-1.05,0 -1.94,-0.36q-0.89,-0.36 -1.53,-1q-0.65,-0.64 -1.01,-1.51q-0.36,-0.87 -0.36,-1.89l0,0q0,-0.95 0.35,-1.8q0.34,-0.85 0.97,-1.49q0.62,-0.63 1.49,-1q0.87,-0.37 1.89,-0.38l0,0q0.63,0.01 1.15,0.13q0.52,0.12 0.98,0.33l0,0l0,-0.19l2.66,0l0,8.73q0,1.15 -0.39,1.99q-0.4,0.84 -1.06,1.39q-0.67,0.55 -1.54,0.82q-0.88,0.26 -1.85,0.26l0,0q-1.2,0 -2.21,-0.32q-1.02,-0.33 -1.81,-0.88l0,0l1.1,-1.95q0.61,0.39 1.32,0.61q0.71,0.22 1.58,0.22l0,0q0.48,0 0.88,-0.1q0.4,-0.11 0.69,-0.36q0.3,-0.25 0.46,-0.67q0.17,-0.42 0.17,-1.06l0,0zm-1.9,-1.95l0,0q0.62,0 1.11,-0.32q0.5,-0.31 0.79,-0.82l0,0l0.02,-2.21q-0.3,-0.56 -0.82,-0.88q-0.52,-0.33 -1.13,-0.34l0,0q-0.43,0.01 -0.84,0.17q-0.41,0.17 -0.72,0.47q-0.3,0.3 -0.47,0.7q-0.18,0.41 -0.18,0.91l0,0q0,0.53 0.18,0.96q0.17,0.43 0.47,0.73q0.3,0.3 0.71,0.46q0.41,0.17 0.88,0.17zm14.78,-6.71l0,3.29l-2.47,0l0,-0.94q-0.36,0 -0.65,0.05q-0.3,0.05 -0.53,0.17q-0.22,0.11 -0.38,0.31q-0.15,0.2 -0.21,0.5l0,0l0,3.3l1.85,0l0,2.41l-5.94,0l0,-2.41l1.36,0l0,-4.29l-1.34,0l0,-2.41l4.05,0l0,0.64q0.39,-0.3 0.87,-0.47q0.48,-0.17 1.06,-0.17l0,0q0.58,0 1.19,0.01q0.62,0.01 1.14,0.01l0,0zm10.57,5.11l-6.71,0l0.03,0.27q0.1,0.39 0.33,0.69q0.23,0.3 0.55,0.5q0.31,0.21 0.7,0.31q0.39,0.1 0.78,0.1l0,0q0.4,0 0.75,-0.05q0.36,-0.05 0.69,-0.13q0.34,-0.09 0.65,-0.2q0.32,-0.11 0.65,-0.23l0,0l0.96,1.8q-0.5,0.31 -0.92,0.53q-0.41,0.21 -0.83,0.35q-0.43,0.14 -0.9,0.21q-0.48,0.06 -1.11,0.06l0,0q-1.19,0 -2.11,-0.39q-0.92,-0.39 -1.55,-1.06q-0.63,-0.66 -0.96,-1.56q-0.33,-0.9 -0.33,-1.9l0,0q0,-1 0.35,-1.88q0.35,-0.88 0.98,-1.53q0.63,-0.66 1.51,-1.04q0.88,-0.37 1.95,-0.37l0,0q1.08,0 1.91,0.35q0.83,0.36 1.4,0.99q0.57,0.62 0.88,1.47q0.3,0.85 0.33,1.83l0,0q0.03,0.22 0.03,0.43q0.01,0.22 -0.01,0.45l0,0zm-4.61,-3.33l0,0q-0.49,0 -0.84,0.12q-0.34,0.12 -0.58,0.33q-0.24,0.2 -0.38,0.47q-0.14,0.26 -0.22,0.55l0,0l3.81,0q-0.06,-0.3 -0.18,-0.56q-0.11,-0.27 -0.32,-0.47q-0.2,-0.2 -0.51,-0.32q-0.31,-0.12 -0.78,-0.12zm15.03,3.33l-6.7,0l0.02,0.27q0.1,0.39 0.33,0.69q0.24,0.3 0.55,0.5q0.32,0.21 0.7,0.31q0.39,0.1 0.79,0.1l0,0q0.39,0 0.75,-0.05q0.35,-0.05 0.69,-0.13q0.33,-0.09 0.65,-0.2q0.32,-0.11 0.64,-0.23l0,0l0.97,1.8q-0.5,0.31 -0.92,0.53q-0.42,0.21 -0.84,0.35q-0.42,0.14 -0.9,0.21q-0.47,0.06 -1.1,0.06l0,0q-1.19,0 -2.11,-0.39q-0.93,-0.39 -1.56,-1.06q-0.62,-0.66 -0.95,-1.56q-0.33,-0.9 -0.33,-1.9l0,0q0,-1 0.34,-1.88q0.35,-0.88 0.98,-1.53q0.64,-0.66 1.52,-1.04q0.87,-0.37 1.95,-0.37l0,0q1.07,0 1.9,0.35q0.83,0.36 1.4,0.99q0.57,0.62 0.88,1.47q0.31,0.85 0.33,1.83l0,0q0.03,0.22 0.04,0.43q0,0.22 -0.02,0.45l0,0zm-4.6,-3.33l0,0q-0.5,0 -0.84,0.12q-0.35,0.12 -0.59,0.33q-0.23,0.2 -0.37,0.47q-0.15,0.26 -0.22,0.55l0,0l3.8,0q-0.06,-0.3 -0.17,-0.56q-0.12,-0.27 -0.32,-0.47q-0.2,-0.2 -0.52,-0.32q-0.31,-0.12 -0.77,-0.12zm13.44,7.31l0,-5.24q0,-0.77 -0.4,-1.2q-0.4,-0.44 -1.07,-0.44l0,0q-0.46,0 -0.93,0.21q-0.46,0.2 -0.9,0.75l0,0l0,3.51l1.48,0l0,2.41l-5.66,0l0,-2.41l1.33,0l0,-4.29l-1.32,0l0,-2.41l4.15,0l0,0.8q0.57,-0.45 1.28,-0.71q0.71,-0.26 1.49,-0.26l0,0q1.64,0 2.53,0.92q0.89,0.92 0.89,2.69l0,0l0,3.26l1.29,0l0,2.41l-4.16,0z"/>
      </g>
     </svg>
    </g>
    <g stroke="null" id="svg_6">
     <svg stroke="null" id="svg_21" data-layer-role="brandName" editorType="buyer" zoom="1" fontUrl="http://fonts.gstatic.com/s/hammersmithone/v12/qWcyB624q4L_C4jGQ9IK0O_dFlnbshsks4MRXw.ttf" width=" 137.48px" height=" 35.17px" viewBox="1.2799999713897705 4.940000057220459 137.47999572753906 35.17000198364258" y="287.187" x="236.335" data-root-id="1209074599093" viewBoxSize="575" xmlns="http://www.w3.org/2000/svg">
      <g stroke="null" id="svg_22" fill=" rgb(78, 182, 72)" root="[object Object]" zoom="1" data-vertical-center="false" data-horizontal-grow="left">
       <path stroke="null" id="svg_23" d="m22.24,18.28l0.05,0.04q-0.33,0.59 -0.33,2.86l0,0l0,5.45q0,2.48 -2.57,4.31l0,0q-2.66,1.91 -6.51,1.91l0,0q-5.34,0 -8.52,-3.35l0,0q-3.08,-3.2 -3.08,-8.16l0,0q0,-5.27 3.13,-8.79l0,0q3.5,-3.95 9.63,-3.95l0,0q4.1,0 6.49,1.58l0,0l-0.28,5.18l-0.14,0.04q-0.62,-1.07 -2.43,-1.76l0,0q-1.72,-0.65 -3.61,-0.65q-1.89,0 -3.3,0.6q-1.42,0.6 -2.4,1.7l0,0q-2.08,2.27 -2.08,6l0,0q0,3.25 1.83,5.22l0,0q1.83,1.95 4.71,1.95l0,0q3.18,0 4.29,-1.65l0,0q0.35,-0.53 0.35,-1.2l0,0l0,-2.92l-2.26,0q-1.83,0 -1.99,0.32l0,0l-0.05,-0.02l-0.16,-4.59q0.49,0.14 3.99,0.14l0,0l2.07,0q1.94,0 3.17,-0.26l0,0zm8.47,1.34l0,10.83q0,1.51 0.07,1.96l0,0l-4.38,0l0,-18.37l4.31,0l0,1.36q1.49,-1.71 3.14,-1.71q1.64,0 2.59,0.41l0,0l-0.32,4.73l-0.07,0.05q-0.61,-1.09 -2.55,-1.09l0,0q-0.73,0 -1.5,0.5q-0.76,0.5 -1.29,1.33l0,0zm7,3.76l0,0q0,-2.06 0.7,-3.82q0.7,-1.75 1.98,-3.07l0,0q2.75,-2.8 7.18,-2.8l0,0q3.74,0 6.01,2.48l0,0q2.23,2.39 2.23,6.01l0,0q0,1.39 -0.21,1.9l0,0q-1.76,0.49 -7.15,0.49l0,0l-6.19,0q0.45,1.89 2.12,2.93q1.67,1.05 4.35,1.05l0,0q2.79,0 4.8,-1.01l0,0q0.52,-0.26 0.79,-0.49l0,0q-0.04,0.74 -0.09,1.51l0,0l-0.19,2.75q-1.34,0.91 -4.33,1.26l0,0q-0.88,0.11 -1.69,0.11l0,0q-4.46,0 -7.38,-2.6l0,0q-2.93,-2.62 -2.93,-6.7zm13.42,-2.22l0,0q-0.72,-3.78 -4.11,-3.78l0,0q-2.67,0 -4.06,2.31l0,0q-0.42,0.7 -0.65,1.54l0,0q0.42,0.02 1.04,0.04l0,0l1.3,0q0.65,0.02 1.25,0.02l0,0l1,0q0.89,0 1.76,-0.02l0,0l1.44,-0.05q0.58,-0.02 1.03,-0.06zm7.62,2.22l0,0q0,-2.06 0.7,-3.82q0.7,-1.75 1.99,-3.07l0,0q2.74,-2.8 7.17,-2.8l0,0q3.74,0 6.01,2.48l0,0q2.23,2.39 2.23,6.01l0,0q0,1.39 -0.21,1.9l0,0q-1.76,0.49 -7.15,0.49l0,0l-6.19,0q0.46,1.89 2.13,2.93q1.67,1.05 4.34,1.05l0,0q2.79,0 4.8,-1.01l0,0q0.52,-0.26 0.79,-0.49l0,0q-0.04,0.74 -0.09,1.51l0,0l-0.19,2.75q-1.34,0.91 -4.33,1.26l0,0q-0.88,0.11 -1.69,0.11l0,0q-4.46,0 -7.38,-2.6l0,0q-2.93,-2.62 -2.93,-6.7zm13.43,-2.22l0,0q-0.72,-3.78 -4.12,-3.78l0,0q-2.67,0 -4.06,2.31l0,0q-0.42,0.7 -0.65,1.54l0,0q0.42,0.02 1.04,0.04l0,0l1.3,0q0.65,0.02 1.25,0.02l0,0l1,0q0.9,0 1.76,-0.02l0,0l1.44,-0.05q0.58,-0.02 1.04,-0.06zm13.11,-1.03l0,10.03q0,1.55 0.14,2.25l0,0l-4.41,0l0,-18.37l4.27,0l0,1.57q2.32,-1.92 4.96,-1.92l0,0q2.88,0 4.6,1.96q1.72,1.96 1.72,5.16l0,0l0,7q0,2.97 0.09,3.57q0.09,0.59 0.24,0.77q0.15,0.18 0.25,0.32l0,0l-0.03,0.07q-1.42,-0.13 -2.08,-0.13l0,0l-1.23,0q-0.56,0 -1.51,0.06l0,0l0,-9.58q0,-5.15 -3.13,-5.15l0,0q-2.32,0 -3.88,2.39l0,0zm19.81,-8.48l-3.96,-2.84q1.41,-2.2 2.94,-3.87l0,0l3.78,2.97q-0.76,0.93 -1.41,1.83l0,0q0,0 -1.35,1.91l0,0zm0.67,2.39l0,16.41q0,1.51 0.07,1.96l0,0l-4.47,0l0,-18.37l4.4,0zm9.35,2.03l4.38,0q-0.14,0.51 -0.14,2.56l0,0l0,1.55l-4.24,0l0,12.23l-4.31,0l0,-12.23l-2.58,0q0.02,-1.16 0.03,-2.06l0,0l0.04,-1.88l0,-0.17l2.51,0l0,-1.09q0,-4.22 1.97,-6.79l0,0q2.06,-2.65 5.66,-2.65l0,0q1.53,0 2.02,0.21l0,0l0.02,4.41l-0.03,0.09q-0.67,-0.67 -1.7,-0.67q-1.03,0 -1.66,0.34q-0.63,0.35 -1.07,0.98l0,0q-0.9,1.26 -0.9,3.46l0,0l0,1.71zm10.48,24.04l-4.54,-1.58l1.16,-0.93q2.62,-2.13 4.34,-6.28l0,0l0.81,-1.95l-6.73,-15.33l4.92,0l4.22,10.62l3.92,-10.62l5.06,0q-0.91,1.27 -2.23,4.72l0,0l-2.64,6.52q-5.29,12.44 -8.29,14.83l0,0z"/>
      </g>
     </svg>
    </g>
   </svg>
  </g>
 </g>
</svg>